<svg width="48" height="32" viewBox="0 0 48 32" fill="none" xmlns="http://www.w3.org/2000/svg">
<path d="M6.845 11V0.499999H8.9V11H6.845ZM14.171 6.2H14.111H14.171L14.966 2.915L15.611 0.499999H17.486L18.161 11H16.196L15.911 5.27H15.836L14.756 9.5H13.526L12.446 5.27H12.371L12.086 11H10.121L10.796 0.499999H12.671L13.316 2.915L14.111 6.2H14.171ZM23.8394 11L23.5244 9.335H21.1544L20.8394 11H18.7994L20.8244 0.499999H23.9294L25.8494 11H23.8394ZM22.3094 2.45L21.7244 5.945L21.3944 7.73H23.2694L22.9244 5.945L22.3394 2.45H22.3094ZM31.5564 11H28.3764C27.6564 10.34 27.1314 9.555 26.8014 8.645C26.4714 7.735 26.3064 6.785 26.3064 5.795C26.3064 4.795 26.5064 3.81 26.9064 2.84C27.3064 1.87 27.8664 1.09 28.5864 0.499999H32.2314V2.3H29.4414C29.1814 2.6 28.9564 3.075 28.7664 3.725C28.5764 4.365 28.4814 5.05 28.4814 5.78C28.4814 6.5 28.5664 7.19 28.7364 7.85C28.9164 8.5 29.1364 8.97 29.3964 9.26H30.8364V5.18H32.8164V7.7C32.8164 9.08 32.3964 10.18 31.5564 11ZM33.9886 11V0.499999H39.3736V2.3H36.0436V4.805H39.0136V6.545H36.0436V9.26H39.4336V11H33.9886ZM6.1707 32H2.9907C2.2707 31.34 1.7457 30.555 1.4157 29.645C1.0857 28.735 0.920703 27.785 0.920703 26.795C0.920703 25.795 1.1207 24.81 1.5207 23.84C1.9207 22.87 2.4807 22.09 3.2007 21.5H6.8457V23.3H4.0557C3.7957 23.6 3.5707 24.075 3.3807 24.725C3.1907 25.365 3.0957 26.05 3.0957 26.78C3.0957 27.5 3.1807 28.19 3.3507 28.85C3.5307 29.5 3.7507 29.97 4.0107 30.26H5.4507V26.18H7.4307V28.7C7.4307 30.08 7.0107 31.18 6.1707 32ZM13.0728 32L12.7578 30.335H10.3878L10.0728 32H8.03281L10.0578 21.5H13.1628L15.0828 32H13.0728ZM11.5428 23.45L10.9578 26.945L10.6278 28.73H12.5028L12.1578 26.945L11.5728 23.45H11.5428ZM15.9563 32V21.5H18.0113V30.26H21.1313V32H15.9563ZM22.1526 32V21.5H24.2076V30.26H27.3276V32H22.1526ZM28.3489 32V21.5H33.7339V23.3H30.4039V25.805H33.3739V27.545H30.4039V30.26H33.7939V32H28.3489ZM34.9554 21.5H38.9454C39.5754 21.71 40.1104 22.1 40.5504 22.67C41.0004 23.23 41.2254 23.92 41.2254 24.74C41.2254 26.08 40.6954 27.065 39.6354 27.695L41.1504 32H39.0504L37.7754 28.175H36.9804V32H34.9554V21.5ZM36.9804 23.3V26.495H38.2704C38.4404 26.455 38.6254 26.285 38.8254 25.985C39.0354 25.675 39.1404 25.315 39.1404 24.905C39.1404 24.495 39.0504 24.135 38.8704 23.825C38.7004 23.515 38.5304 23.34 38.3604 23.3H36.9804ZM45.7059 32H43.5159V28.505L41.2959 21.5H43.3359L44.2659 24.695L44.5809 26.54H44.6409L44.9559 24.695L45.8859 21.5H47.9259L45.7059 28.505V32Z" fill="white"/>
</svg>
