<svg width="171" height="31" viewBox="0 0 171 31" fill="none" xmlns="http://www.w3.org/2000/svg">
<path d="M7.16309 2.62402C5.81543 3.18066 4.78027 4.01074 4.05762 5.11426C3.33496 6.21777 2.97363 7.57031 2.97363 9.17188C2.97363 9.79688 3.04199 10.2949 3.17871 10.666C3.21777 10.793 3.2666 10.9053 3.3252 11.0029C3.36426 11.0713 3.38379 11.1396 3.38379 11.208C2.2998 11.208 1.50879 10.9932 1.01074 10.5635C0.454102 10.0947 0.175781 9.33789 0.175781 8.29297C0.175781 7.63867 0.317383 6.99414 0.600586 6.35938C0.883789 5.71484 1.28418 5.09473 1.80176 4.49902C2.29004 3.93262 2.87109 3.40527 3.54492 2.91699C4.22852 2.41895 4.96582 1.98926 5.75684 1.62793C7.41699 0.875977 9.06738 0.5 10.708 0.5C11.1572 0.5 11.5576 0.519531 11.9092 0.558594L7.13379 23H2.82715L7.16309 2.62402ZM29.4873 23.1758C28.2471 23.1758 27.3291 22.8242 26.7334 22.1211C26.2158 21.5156 25.957 20.7393 25.957 19.792C25.957 19.3428 26.0107 18.8203 26.1182 18.2246C26.2354 17.6289 26.4062 16.8623 26.6309 15.9248C26.8555 14.9678 27.0215 14.2061 27.1289 13.6396C27.2461 13.0635 27.3047 12.5654 27.3047 12.1455C27.3047 11.1201 26.9434 10.6074 26.2207 10.6074C25.7129 10.6074 25.2441 10.876 24.8145 11.4131C24.4531 11.8721 24.1406 12.5264 23.877 13.376L21.8408 23H17.5195L19.7168 12.6436C19.7754 12.4092 19.8047 12.1602 19.8047 11.8965C19.8047 11.4961 19.7412 11.1885 19.6143 10.9736C19.4482 10.71 19.209 10.5781 18.8965 10.5781C18.3301 10.5781 17.8369 10.8516 17.417 11.3984C17.0459 11.8672 16.7285 12.5264 16.4648 13.376L14.4287 23H10.1074L13.2861 8H17.6074L17.2852 9.55273C17.8711 8.89844 18.5107 8.43457 19.2041 8.16113C19.751 7.95605 20.332 7.85352 20.9473 7.85352C21.7871 7.85352 22.4561 8.04883 22.9541 8.43945C23.5107 8.87891 23.8672 9.54297 24.0234 10.4316C24.668 9.43555 25.4102 8.73242 26.25 8.32227C26.8457 8.0293 27.4951 7.88281 28.1982 7.88281C29.2041 7.88281 30 8.14648 30.5859 8.67383C31.2109 9.25 31.5234 10.1143 31.5234 11.2666C31.5234 11.9209 31.4014 12.8242 31.1572 13.9766C31.0596 14.4551 30.9424 14.9385 30.8057 15.4268C30.5615 16.3643 30.3613 17.2285 30.2051 18.0195C30.127 18.4297 30.0879 18.7617 30.0879 19.0156C30.0879 19.416 30.1758 19.7285 30.3516 19.9531C30.5371 20.168 30.8496 20.2754 31.2891 20.2754C31.8848 20.2754 32.3877 20.0312 32.7979 19.543C33.1104 19.1719 33.4473 18.5322 33.8086 17.624H35.0684C34.3262 19.8213 33.3887 21.3594 32.2559 22.2383C31.4551 22.8633 30.5322 23.1758 29.4873 23.1758ZM37.4121 23.1758C36.2695 23.1758 35.3467 22.8193 34.6436 22.1064C33.8232 21.2666 33.4131 20.0166 33.4131 18.3564C33.4131 17.6533 33.4863 16.9111 33.6328 16.1299C33.7695 15.3486 33.9746 14.5771 34.248 13.8154C34.873 12.0967 35.7275 10.71 36.8115 9.65527C38.0615 8.4541 39.502 7.85352 41.1328 7.85352C41.9434 7.85352 42.5488 7.99512 42.9492 8.27832C43.3594 8.55176 43.5645 8.91797 43.5645 9.37695V9.59668L43.8867 8H48.208L46.0547 18.1953C45.9668 18.4883 45.9229 18.8105 45.9229 19.1621C45.9229 20.0215 46.333 20.4512 47.1533 20.4512C47.7002 20.4512 48.1982 20.1729 48.6475 19.6162C49.0283 19.1475 49.3408 18.4834 49.585 17.624H50.8447C50.3076 19.1475 49.6582 20.3535 48.8965 21.2422C48.252 21.9746 47.5244 22.502 46.7139 22.8242C46.1182 23.0586 45.4883 23.1758 44.8242 23.1758C43.9746 23.1758 43.2959 22.9463 42.7881 22.4873C42.29 22.0186 41.9873 21.3301 41.8799 20.4219C41.3135 21.2227 40.7178 21.8477 40.0928 22.2969C39.292 22.8828 38.3984 23.1758 37.4121 23.1758ZM39.3604 20.2754C39.585 20.2754 39.8193 20.2168 40.0635 20.0996C40.3174 19.9824 40.5615 19.8164 40.7959 19.6016C41.3232 19.0938 41.6748 18.4346 41.8506 17.624L43.2861 10.8564C43.2861 10.7588 43.2617 10.6465 43.2129 10.5195C43.1738 10.3828 43.1152 10.2559 43.0371 10.1387C42.8027 9.85547 42.4756 9.71387 42.0557 9.71387C41.6553 9.71387 41.2646 9.8457 40.8838 10.1094C40.5127 10.373 40.1611 10.7393 39.8291 11.208C39.2432 12.0576 38.7598 13.166 38.3789 14.5332C38.2031 15.1387 38.0713 15.7393 37.9834 16.335C37.8955 16.9209 37.8516 17.4531 37.8516 17.9316C37.8516 18.9277 38.0371 19.6016 38.4082 19.9531C38.5352 20.0898 38.6768 20.1777 38.833 20.2168C38.9893 20.2559 39.165 20.2754 39.3604 20.2754ZM54.9023 30.5C54.4336 30.5 53.9941 30.4365 53.584 30.3096C53.1836 30.1924 52.8369 30.0117 52.5439 29.7676C52.2314 29.5234 51.9873 29.2158 51.8115 28.8447C51.6357 28.4834 51.5479 28.0635 51.5479 27.585C51.5479 26.4521 52.0801 25.4805 53.1445 24.6699C53.9453 24.0742 55.0439 23.5566 56.4404 23.1172L56.8066 21.5352C55.7812 22.6289 54.5801 23.1758 53.2031 23.1758C52.0605 23.1758 51.1377 22.8193 50.4346 22.1064C49.6143 21.2666 49.2041 20.0166 49.2041 18.3564C49.2041 17.6533 49.2773 16.9111 49.4238 16.1299C49.5605 15.3486 49.7656 14.5771 50.0391 13.8154C50.6641 12.0967 51.5186 10.71 52.6025 9.65527C53.8525 8.4541 55.293 7.85352 56.9238 7.85352C57.7344 7.85352 58.3398 7.99512 58.7402 8.27832C59.1504 8.55176 59.3555 8.91797 59.3555 9.37695V9.55273L59.6777 8H63.999L61.0254 21.916C61.9727 21.6035 62.7295 21.1348 63.2959 20.5098C63.9111 19.8359 64.4141 18.874 64.8047 17.624H66.0645C65.5273 19.4014 64.7266 20.7734 63.6621 21.7402C62.8809 22.4434 61.9141 22.9414 60.7617 23.2344L60.3076 25.4023C59.9268 27.3164 59.165 28.7031 58.0225 29.5625C57.1924 30.1875 56.1523 30.5 54.9023 30.5ZM55.1514 20.2754C55.5811 20.2754 56.0352 20.0752 56.5137 19.6748C57.0312 19.2256 57.3779 18.6445 57.5537 17.9316L59.0771 10.8271C59.0771 10.7295 59.0527 10.6172 59.0039 10.4902C58.9648 10.3633 58.9062 10.2461 58.8281 10.1387C58.5938 9.85547 58.2666 9.71387 57.8467 9.71387C57.4463 9.71387 57.0557 9.8457 56.6748 10.1094C56.3037 10.373 55.9521 10.7393 55.6201 11.208C55.0342 12.0576 54.5508 13.166 54.1699 14.5332C53.9941 15.1387 53.8623 15.7393 53.7744 16.335C53.6865 16.9209 53.6426 17.4531 53.6426 17.9316C53.6426 18.9277 53.8281 19.6016 54.1992 19.9531C54.3262 20.0898 54.4678 20.1777 54.624 20.2168C54.7803 20.2559 54.9561 20.2754 55.1514 20.2754ZM54.2139 28.1562C54.5264 28.1562 54.8486 27.9365 55.1807 27.4971C55.5127 27.0674 55.7715 26.3984 55.957 25.4902L56.1328 24.626C55.2246 24.9678 54.5459 25.3145 54.0967 25.666C53.501 26.1152 53.2031 26.6182 53.2031 27.1748C53.2031 27.4385 53.2861 27.6582 53.4521 27.834C53.6377 28.0488 53.8916 28.1562 54.2139 28.1562ZM69.0967 23.1758C67.6221 23.1758 66.4844 22.8047 65.6836 22.0625C64.834 21.2715 64.4092 20.0557 64.4092 18.415C64.4092 17.7998 64.4727 17.1162 64.5996 16.3643C64.7168 15.6123 64.8975 14.8604 65.1416 14.1084C65.415 13.2686 65.7617 12.4727 66.1816 11.7207C66.6113 10.9688 67.1094 10.3047 67.6758 9.72852C68.9844 8.40039 70.5957 7.73633 72.5098 7.73633C73.7305 7.73633 74.6191 8.0293 75.1758 8.61523C75.6055 9.07422 75.8203 9.73828 75.8203 10.6074C75.8203 11.457 75.6348 12.2578 75.2637 13.0098C74.8926 13.752 74.3799 14.4111 73.7256 14.9873C73.0713 15.5537 72.3291 16.0078 71.499 16.3496C70.6689 16.6816 69.8096 16.877 68.9209 16.9355C68.8721 17.4434 68.8477 17.8438 68.8477 18.1367C68.8477 19.1133 69.0332 19.7871 69.4043 20.1582C69.7266 20.4902 70.2637 20.6562 71.0156 20.6562C72.0996 20.6562 73.0908 20.3633 73.9893 19.7773C74.3701 19.5332 74.7363 19.2451 75.0879 18.9131C75.4395 18.5713 75.8496 18.1416 76.3184 17.624H77.3438C76.3965 19.2256 75.3076 20.5 74.0771 21.4473C72.5635 22.5996 70.9033 23.1758 69.0967 23.1758ZM69.1553 15.5C69.7119 15.4609 70.2539 15.2998 70.7812 15.0166C71.3086 14.7334 71.7773 14.3623 72.1875 13.9033C72.5977 13.4346 72.9199 12.9121 73.1543 12.3359C73.3887 11.75 73.5059 11.1543 73.5059 10.5488C73.5059 10.1484 73.4473 9.8457 73.3301 9.64062C73.2227 9.42578 73.0322 9.31836 72.7588 9.31836C72.3975 9.31836 72.0312 9.49414 71.6602 9.8457C71.2988 10.1973 70.9473 10.6807 70.6055 11.2959C70.293 11.8721 70.0098 12.5264 69.7559 13.2588C69.502 13.9912 69.3018 14.7383 69.1553 15.5ZM89.751 29.2109C89.0283 29.2109 88.3691 29.1133 87.7734 28.918C87.1777 28.7227 86.665 28.4443 86.2354 28.083C85.8057 27.7217 85.4736 27.2871 85.2393 26.7793C85.0049 26.2715 84.8877 25.7197 84.8877 25.124C84.8877 24.5479 84.9902 24.0059 85.1953 23.498C85.4004 23 85.6885 22.5557 86.0596 22.165C86.4209 21.7842 86.8506 21.4912 87.3486 21.2861C87.8467 21.0713 88.374 20.9639 88.9307 20.9639C89.7021 20.9639 90.3174 21.1494 90.7764 21.5205C91.2451 21.8916 91.4795 22.3945 91.4795 23.0293C91.4795 23.5078 91.3721 23.8887 91.1572 24.1719C90.9717 23.9277 90.7227 23.7373 90.4102 23.6006C90.1074 23.4639 89.7852 23.3955 89.4434 23.3955C88.8281 23.3955 88.3398 23.5908 87.9785 23.9814C87.5977 24.3818 87.4072 24.9043 87.4072 25.5488C87.4072 26.1836 87.5928 26.7012 87.9639 27.1016C88.3252 27.5117 88.7891 27.7168 89.3555 27.7168C90.0488 27.7168 90.6445 27.4043 91.1426 26.7793C91.6406 26.1641 92.0264 25.2461 92.2998 24.0254L93.7939 17.3896H93.6768C93.1201 18.1514 92.4561 18.7324 91.6846 19.1328C90.9229 19.5332 90.0879 19.7334 89.1797 19.7334C88.3008 19.7334 87.5049 19.5576 86.792 19.2061C86.0791 18.8447 85.4688 18.332 84.9609 17.668C84.4531 17.0039 84.0625 16.2031 83.7891 15.2656C83.5156 14.3281 83.3789 13.2881 83.3789 12.1455C83.3789 11.042 83.501 9.98242 83.7451 8.9668C83.999 7.94141 84.3652 6.98438 84.8438 6.0957C85.8008 4.29883 87.1045 2.89258 88.7549 1.87695C90.4541 0.822266 92.3145 0.294922 94.3359 0.294922C95.1758 0.294922 95.9375 0.392578 96.6211 0.587891C97.3145 0.773438 97.9004 1.04199 98.3789 1.39355C98.8574 1.75488 99.2236 2.19434 99.4775 2.71191C99.7314 3.21973 99.8584 3.79102 99.8584 4.42578C99.8584 5.27539 99.6484 5.96387 99.2285 6.49121C99.0234 6.74512 98.7744 6.94043 98.4814 7.07715C98.1982 7.21387 97.8955 7.28223 97.5732 7.28223C97.2021 7.28223 96.8506 7.2041 96.5186 7.04785C96.1865 6.88184 95.9082 6.64746 95.6836 6.34473C96.0352 6.11035 96.3379 5.72461 96.5918 5.1875C96.8457 4.65039 96.9727 4.11816 96.9727 3.59082C96.9727 2.98535 96.7969 2.52148 96.4453 2.19922C96.1035 1.86719 95.6104 1.70117 94.9658 1.70117C94.3799 1.70117 93.7988 1.83789 93.2227 2.11133C92.6562 2.38477 92.1094 2.77051 91.582 3.26855C91.0645 3.75684 90.5859 4.34277 90.1465 5.02637C89.707 5.7002 89.3311 6.43262 89.0186 7.22363C88.3447 8.89355 88.0078 10.6514 88.0078 12.4971C88.0078 14.0107 88.2422 15.1631 88.7109 15.9541C89.1895 16.7354 89.8828 17.126 90.791 17.126C91.8848 17.126 92.8369 16.5645 93.6475 15.4414C94.4678 14.3086 95.1367 12.6387 95.6543 10.4316L99.1992 10.4609L97.002 20.5391C96.3574 23.5078 95.4541 25.7002 94.292 27.1162C93.1299 28.5127 91.6162 29.2109 89.751 29.2109ZM103.77 23.1758C102.627 23.1758 101.704 22.8193 101.001 22.1064C100.181 21.2666 99.7705 20.0166 99.7705 18.3564C99.7705 17.6533 99.8438 16.9111 99.9902 16.1299C100.127 15.3486 100.332 14.5771 100.605 13.8154C101.23 12.0967 102.085 10.71 103.169 9.65527C104.419 8.4541 105.859 7.85352 107.49 7.85352C108.301 7.85352 108.906 7.99512 109.307 8.27832C109.717 8.55176 109.922 8.91797 109.922 9.37695V9.59668L110.244 8H114.565L112.412 18.1953C112.324 18.4883 112.28 18.8105 112.28 19.1621C112.28 20.0215 112.69 20.4512 113.511 20.4512C114.058 20.4512 114.556 20.1729 115.005 19.6162C115.386 19.1475 115.698 18.4834 115.942 17.624H117.202C116.665 19.1475 116.016 20.3535 115.254 21.2422C114.609 21.9746 113.882 22.502 113.071 22.8242C112.476 23.0586 111.846 23.1758 111.182 23.1758C110.332 23.1758 109.653 22.9463 109.146 22.4873C108.647 22.0186 108.345 21.3301 108.237 20.4219C107.671 21.2227 107.075 21.8477 106.45 22.2969C105.649 22.8828 104.756 23.1758 103.77 23.1758ZM105.718 20.2754C105.942 20.2754 106.177 20.2168 106.421 20.0996C106.675 19.9824 106.919 19.8164 107.153 19.6016C107.681 19.0938 108.032 18.4346 108.208 17.624L109.644 10.8564C109.644 10.7588 109.619 10.6465 109.57 10.5195C109.531 10.3828 109.473 10.2559 109.395 10.1387C109.16 9.85547 108.833 9.71387 108.413 9.71387C108.013 9.71387 107.622 9.8457 107.241 10.1094C106.87 10.373 106.519 10.7393 106.187 11.208C105.601 12.0576 105.117 13.166 104.736 14.5332C104.561 15.1387 104.429 15.7393 104.341 16.335C104.253 16.9209 104.209 17.4531 104.209 17.9316C104.209 18.9277 104.395 19.6016 104.766 19.9531C104.893 20.0898 105.034 20.1777 105.19 20.2168C105.347 20.2559 105.522 20.2754 105.718 20.2754ZM118.931 23.1758C117.974 23.1758 117.217 22.8926 116.66 22.3262C116.035 21.7012 115.723 20.7881 115.723 19.5869C115.723 19.0205 115.801 18.3662 115.957 17.624L119.165 2.59473L123.604 1.99414L120.161 18.1953C120.083 18.4492 120.044 18.7715 120.044 19.1621C120.044 19.5723 120.137 19.8604 120.322 20.0264C120.518 20.1924 120.83 20.2754 121.26 20.2754C121.553 20.2754 121.836 20.2119 122.109 20.085C122.393 19.9482 122.651 19.7627 122.886 19.5283C123.364 19.0498 123.726 18.415 123.97 17.624H125.229C124.692 19.1377 124.019 20.3438 123.208 21.2422C122.524 21.9746 121.753 22.502 120.894 22.8242C120.269 23.0586 119.614 23.1758 118.931 23.1758ZM126.958 23.1758C126.001 23.1758 125.244 22.8926 124.688 22.3262C124.062 21.7012 123.75 20.7881 123.75 19.5869C123.75 19.0205 123.828 18.3662 123.984 17.624L127.192 2.59473L131.631 1.99414L128.188 18.1953C128.11 18.4492 128.071 18.7715 128.071 19.1621C128.071 19.5723 128.164 19.8604 128.35 20.0264C128.545 20.1924 128.857 20.2754 129.287 20.2754C129.58 20.2754 129.863 20.2119 130.137 20.085C130.42 19.9482 130.679 19.7627 130.913 19.5283C131.392 19.0498 131.753 18.415 131.997 17.624H133.257C132.72 19.1377 132.046 20.3438 131.235 21.2422C130.552 21.9746 129.78 22.502 128.921 22.8242C128.296 23.0586 127.642 23.1758 126.958 23.1758ZM136.304 23.1758C134.829 23.1758 133.691 22.8047 132.891 22.0625C132.041 21.2715 131.616 20.0557 131.616 18.415C131.616 17.7998 131.68 17.1162 131.807 16.3643C131.924 15.6123 132.104 14.8604 132.349 14.1084C132.622 13.2686 132.969 12.4727 133.389 11.7207C133.818 10.9688 134.316 10.3047 134.883 9.72852C136.191 8.40039 137.803 7.73633 139.717 7.73633C140.938 7.73633 141.826 8.0293 142.383 8.61523C142.812 9.07422 143.027 9.73828 143.027 10.6074C143.027 11.457 142.842 12.2578 142.471 13.0098C142.1 13.752 141.587 14.4111 140.933 14.9873C140.278 15.5537 139.536 16.0078 138.706 16.3496C137.876 16.6816 137.017 16.877 136.128 16.9355C136.079 17.4434 136.055 17.8438 136.055 18.1367C136.055 19.1133 136.24 19.7871 136.611 20.1582C136.934 20.4902 137.471 20.6562 138.223 20.6562C139.307 20.6562 140.298 20.3633 141.196 19.7773C141.577 19.5332 141.943 19.2451 142.295 18.9131C142.646 18.5713 143.057 18.1416 143.525 17.624H144.551C143.604 19.2256 142.515 20.5 141.284 21.4473C139.771 22.5996 138.11 23.1758 136.304 23.1758ZM136.362 15.5C136.919 15.4609 137.461 15.2998 137.988 15.0166C138.516 14.7334 138.984 14.3623 139.395 13.9033C139.805 13.4346 140.127 12.9121 140.361 12.3359C140.596 11.75 140.713 11.1543 140.713 10.5488C140.713 10.1484 140.654 9.8457 140.537 9.64062C140.43 9.42578 140.239 9.31836 139.966 9.31836C139.604 9.31836 139.238 9.49414 138.867 9.8457C138.506 10.1973 138.154 10.6807 137.812 11.2959C137.5 11.8721 137.217 12.5264 136.963 13.2588C136.709 13.9912 136.509 14.7383 136.362 15.5ZM145.562 8H149.883L149.502 9.86035C150.186 9.25488 150.742 8.8252 151.172 8.57129C151.836 8.19043 152.485 8 153.12 8C153.765 8 154.282 8.22949 154.673 8.68848C154.849 8.89355 154.98 9.13281 155.068 9.40625C155.156 9.66992 155.2 9.95312 155.2 10.2559C155.2 10.5293 155.156 10.793 155.068 11.0469C154.98 11.3008 154.849 11.5303 154.673 11.7354C154.478 11.9502 154.238 12.1211 153.955 12.248C153.682 12.375 153.374 12.4385 153.032 12.4385C152.769 12.4385 152.559 12.3945 152.402 12.3066C152.246 12.2188 152.124 12.0918 152.036 11.9258C151.958 11.7598 151.904 11.5986 151.875 11.4424C151.787 11.0225 151.699 10.7441 151.611 10.6074C151.543 10.5098 151.436 10.4609 151.289 10.4609C150.869 10.4609 150.513 10.5488 150.22 10.7246C149.927 10.9004 149.556 11.1934 149.106 11.6035L146.704 23H142.383L145.562 8ZM159.478 30.5C159.009 30.5 158.569 30.4365 158.159 30.3096C157.759 30.1924 157.412 30.0117 157.119 29.7676C156.807 29.5234 156.562 29.2158 156.387 28.8447C156.211 28.4834 156.123 28.0635 156.123 27.585C156.123 26.4521 156.655 25.4805 157.72 24.6699C158.521 24.0742 159.619 23.5566 161.016 23.1172L161.382 21.5059C160.796 22.1504 160.161 22.6045 159.478 22.8682C158.95 23.0732 158.384 23.1758 157.778 23.1758C156.821 23.1758 156.064 22.8926 155.508 22.3262C154.883 21.7012 154.57 20.7881 154.57 19.5869C154.57 19.0205 154.648 18.3662 154.805 17.624L156.841 8H161.162L159.009 18.1953C158.95 18.4395 158.921 18.6934 158.921 18.957C158.921 19.3379 158.984 19.6406 159.111 19.8652C159.258 20.1387 159.492 20.2754 159.814 20.2754C160.342 20.2754 160.815 20.041 161.235 19.5723C161.597 19.1719 161.904 18.5859 162.158 17.8145L164.253 8H168.574L165.601 21.916C166.548 21.6035 167.305 21.1348 167.871 20.5098C168.486 19.8359 168.989 18.874 169.38 17.624H170.64C170.103 19.4014 169.302 20.7734 168.237 21.7402C167.456 22.4434 166.489 22.9414 165.337 23.2344L164.883 25.4023C164.502 27.3164 163.74 28.7031 162.598 29.5625C161.768 30.1875 160.728 30.5 159.478 30.5ZM158.789 28.1562C159.092 28.1562 159.414 27.9365 159.756 27.4971C160.088 27.0674 160.347 26.3984 160.532 25.4902L160.708 24.626C159.8 24.9678 159.121 25.3145 158.672 25.666C158.076 26.1152 157.778 26.6182 157.778 27.1748C157.778 27.4385 157.861 27.6582 158.027 27.834C158.213 28.0488 158.467 28.1562 158.789 28.1562Z" fill="#333333"/>
</svg>
